<svg id="visual" viewBox="0 0 960 300" width="960" height="300" xmlns="http://www.w3.org/2000/svg" xmlns:xlink="http://www.w3.org/1999/xlink" version="1.1"><rect x="0" y="0" width="960" height="300" fill="#B8CDF8"></rect><path d="M0 202L22.8 205.5C45.7 209 91.3 216 137 213.3C182.7 210.7 228.3 198.3 274 193.3C319.7 188.3 365.3 190.7 411.2 191C457 191.3 503 189.7 548.8 190.2C594.7 190.7 640.3 193.3 686 192.7C731.7 192 777.3 188 823 188.5C868.7 189 914.3 194 937.2 196.5L960 199L960 301L937.2 301C914.3 301 868.7 301 823 301C777.3 301 731.7 301 686 301C640.3 301 594.7 301 548.8 301C503 301 457 301 411.2 301C365.3 301 319.7 301 274 301C228.3 301 182.7 301 137 301C91.3 301 45.7 301 22.8 301L0 301Z" fill="#b8cdf8"></path><path d="M0 216L22.8 216.5C45.7 217 91.3 218 137 218.5C182.7 219 228.3 219 274 222.2C319.7 225.3 365.3 231.7 411.2 235C457 238.3 503 238.7 548.8 240.7C594.7 242.7 640.3 246.3 686 243.3C731.7 240.3 777.3 230.7 823 227.8C868.7 225 914.3 229 937.2 231L960 233L960 301L937.2 301C914.3 301 868.7 301 823 301C777.3 301 731.7 301 686 301C640.3 301 594.7 301 548.8 301C503 301 457 301 411.2 301C365.3 301 319.7 301 274 301C228.3 301 182.7 301 137 301C91.3 301 45.7 301 22.8 301L0 301Z" fill="#daace8"></path><path d="M0 250L22.8 254.3C45.7 258.7 91.3 267.3 137 269.7C182.7 272 228.3 268 274 266C319.7 264 365.3 264 411.2 263.8C457 263.7 503 263.3 548.8 262.5C594.7 261.7 640.3 260.3 686 258.3C731.7 256.3 777.3 253.7 823 256.2C868.7 258.7 914.3 266.3 937.2 270.2L960 274L960 301L937.2 301C914.3 301 868.7 301 823 301C777.3 301 731.7 301 686 301C640.3 301 594.7 301 548.8 301C503 301 457 301 411.2 301C365.3 301 319.7 301 274 301C228.3 301 182.7 301 137 301C91.3 301 45.7 301 22.8 301L0 301Z" fill="#fd87aa"></path></svg>