<svg id="visual" viewBox="0 0 2000 2000" width="2000" height="2000" xmlns="http://www.w3.org/2000/svg" xmlns:xlink="http://www.w3.org/1999/xlink" version="1.1"><path d="M0 361L87 361L87 401L174 401L174 421L261 421L261 741L348 741L348 381L435 381L435 601L522 601L522 361L609 361L609 1221L696 1221L696 361L783 361L783 341L870 341L870 301L957 301L957 261L1043 261L1043 801L1130 801L1130 1201L1217 1201L1217 581L1304 581L1304 961L1391 961L1391 701L1478 701L1478 41L1565 41L1565 41L1652 41L1652 1241L1739 1241L1739 681L1826 681L1826 321L1913 321L1913 141L2000 141L2000 621L2000 0L2000 0L1913 0L1913 0L1826 0L1826 0L1739 0L1739 0L1652 0L1652 0L1565 0L1565 0L1478 0L1478 0L1391 0L1391 0L1304 0L1304 0L1217 0L1217 0L1130 0L1130 0L1043 0L1043 0L957 0L957 0L870 0L870 0L783 0L783 0L696 0L696 0L609 0L609 0L522 0L522 0L435 0L435 0L348 0L348 0L261 0L261 0L174 0L174 0L87 0L87 0L0 0Z" fill="#b8cdf8"></path><path d="M0 581L87 581L87 721L174 721L174 841L261 841L261 1101L348 1101L348 841L435 841L435 1001L522 1001L522 821L609 821L609 1541L696 1541L696 521L783 521L783 481L870 481L870 341L957 341L957 361L1043 361L1043 1001L1130 1001L1130 1281L1217 1281L1217 1321L1304 1321L1304 1221L1391 1221L1391 1501L1478 1501L1478 841L1565 841L1565 321L1652 321L1652 1481L1739 1481L1739 1261L1826 1261L1826 921L1913 921L1913 801L2000 801L2000 981L2000 619L2000 139L1913 139L1913 319L1826 319L1826 679L1739 679L1739 1239L1652 1239L1652 39L1565 39L1565 39L1478 39L1478 699L1391 699L1391 959L1304 959L1304 579L1217 579L1217 1199L1130 1199L1130 799L1043 799L1043 259L957 259L957 299L870 299L870 339L783 339L783 359L696 359L696 1219L609 1219L609 359L522 359L522 599L435 599L435 379L348 379L348 739L261 739L261 419L174 419L174 399L87 399L87 359L0 359Z" fill="#cbb8f2"></path><path d="M0 1881L87 1881L87 1701L174 1701L174 1901L261 1901L261 1781L348 1781L348 1521L435 1521L435 1661L522 1661L522 1401L609 1401L609 1881L696 1881L696 1901L783 1901L783 1521L870 1521L870 1961L957 1961L957 1901L1043 1901L1043 1681L1130 1681L1130 1941L1217 1941L1217 1881L1304 1881L1304 1501L1391 1501L1391 1881L1478 1881L1478 1941L1565 1941L1565 1441L1652 1441L1652 1881L1739 1881L1739 1861L1826 1861L1826 1581L1913 1581L1913 1721L2000 1721L2000 1921L2000 979L2000 799L1913 799L1913 919L1826 919L1826 1259L1739 1259L1739 1479L1652 1479L1652 319L1565 319L1565 839L1478 839L1478 1499L1391 1499L1391 1219L1304 1219L1304 1319L1217 1319L1217 1279L1130 1279L1130 999L1043 999L1043 359L957 359L957 339L870 339L870 479L783 479L783 519L696 519L696 1539L609 1539L609 819L522 819L522 999L435 999L435 839L348 839L348 1099L261 1099L261 839L174 839L174 719L87 719L87 579L0 579Z" fill="#e99fd8"></path><path d="M0 2001L87 2001L87 2001L174 2001L174 2001L261 2001L261 2001L348 2001L348 2001L435 2001L435 2001L522 2001L522 2001L609 2001L609 2001L696 2001L696 2001L783 2001L783 2001L870 2001L870 2001L957 2001L957 2001L1043 2001L1043 2001L1130 2001L1130 2001L1217 2001L1217 2001L1304 2001L1304 2001L1391 2001L1391 2001L1478 2001L1478 2001L1565 2001L1565 2001L1652 2001L1652 2001L1739 2001L1739 2001L1826 2001L1826 2001L1913 2001L1913 2001L2000 2001L2000 2001L2000 1919L2000 1719L1913 1719L1913 1579L1826 1579L1826 1859L1739 1859L1739 1879L1652 1879L1652 1439L1565 1439L1565 1939L1478 1939L1478 1879L1391 1879L1391 1499L1304 1499L1304 1879L1217 1879L1217 1939L1130 1939L1130 1679L1043 1679L1043 1899L957 1899L957 1959L870 1959L870 1519L783 1519L783 1899L696 1899L696 1879L609 1879L609 1399L522 1399L522 1659L435 1659L435 1519L348 1519L348 1779L261 1779L261 1899L174 1899L174 1699L87 1699L87 1879L0 1879Z" fill="#fd87aa"></path></svg>