<svg id="visual" viewBox="0 0 4000 4000" width="4000" height="4000" xmlns="http://www.w3.org/2000/svg" xmlns:xlink="http://www.w3.org/1999/xlink" version="1.1"><path d="M0 721L174 721L174 801L348 801L348 841L522 841L522 1481L696 1481L696 761L870 761L870 1201L1043 1201L1043 721L1217 721L1217 2441L1391 2441L1391 721L1565 721L1565 681L1739 681L1739 601L1913 601L1913 521L2087 521L2087 1601L2261 1601L2261 2401L2435 2401L2435 1161L2609 1161L2609 1921L2783 1921L2783 1401L2957 1401L2957 81L3130 81L3130 81L3304 81L3304 2481L3478 2481L3478 1361L3652 1361L3652 641L3826 641L3826 281L4000 281L4000 1241L4000 0L4000 0L3826 0L3826 0L3652 0L3652 0L3478 0L3478 0L3304 0L3304 0L3130 0L3130 0L2957 0L2957 0L2783 0L2783 0L2609 0L2609 0L2435 0L2435 0L2261 0L2261 0L2087 0L2087 0L1913 0L1913 0L1739 0L1739 0L1565 0L1565 0L1391 0L1391 0L1217 0L1217 0L1043 0L1043 0L870 0L870 0L696 0L696 0L522 0L522 0L348 0L348 0L174 0L174 0L0 0Z" fill="#b8cdf8"></path><path d="M0 1161L174 1161L174 1441L348 1441L348 1681L522 1681L522 2201L696 2201L696 1681L870 1681L870 2001L1043 2001L1043 1641L1217 1641L1217 3081L1391 3081L1391 1041L1565 1041L1565 961L1739 961L1739 681L1913 681L1913 721L2087 721L2087 2001L2261 2001L2261 2561L2435 2561L2435 2641L2609 2641L2609 2441L2783 2441L2783 3001L2957 3001L2957 1681L3130 1681L3130 641L3304 641L3304 2961L3478 2961L3478 2521L3652 2521L3652 1841L3826 1841L3826 1601L4000 1601L4000 1961L4000 1239L4000 279L3826 279L3826 639L3652 639L3652 1359L3478 1359L3478 2479L3304 2479L3304 79L3130 79L3130 79L2957 79L2957 1399L2783 1399L2783 1919L2609 1919L2609 1159L2435 1159L2435 2399L2261 2399L2261 1599L2087 1599L2087 519L1913 519L1913 599L1739 599L1739 679L1565 679L1565 719L1391 719L1391 2439L1217 2439L1217 719L1043 719L1043 1199L870 1199L870 759L696 759L696 1479L522 1479L522 839L348 839L348 799L174 799L174 719L0 719Z" fill="#cbb8f2"></path><path d="M0 3761L174 3761L174 3401L348 3401L348 3801L522 3801L522 3561L696 3561L696 3041L870 3041L870 3321L1043 3321L1043 2801L1217 2801L1217 3761L1391 3761L1391 3801L1565 3801L1565 3041L1739 3041L1739 3921L1913 3921L1913 3801L2087 3801L2087 3361L2261 3361L2261 3881L2435 3881L2435 3761L2609 3761L2609 3001L2783 3001L2783 3761L2957 3761L2957 3881L3130 3881L3130 2881L3304 2881L3304 3761L3478 3761L3478 3721L3652 3721L3652 3161L3826 3161L3826 3441L4000 3441L4000 3841L4000 1959L4000 1599L3826 1599L3826 1839L3652 1839L3652 2519L3478 2519L3478 2959L3304 2959L3304 639L3130 639L3130 1679L2957 1679L2957 2999L2783 2999L2783 2439L2609 2439L2609 2639L2435 2639L2435 2559L2261 2559L2261 1999L2087 1999L2087 719L1913 719L1913 679L1739 679L1739 959L1565 959L1565 1039L1391 1039L1391 3079L1217 3079L1217 1639L1043 1639L1043 1999L870 1999L870 1679L696 1679L696 2199L522 2199L522 1679L348 1679L348 1439L174 1439L174 1159L0 1159Z" fill="#e99fd8"></path><path d="M0 4001L174 4001L174 4001L348 4001L348 4001L522 4001L522 4001L696 4001L696 4001L870 4001L870 4001L1043 4001L1043 4001L1217 4001L1217 4001L1391 4001L1391 4001L1565 4001L1565 4001L1739 4001L1739 4001L1913 4001L1913 4001L2087 4001L2087 4001L2261 4001L2261 4001L2435 4001L2435 4001L2609 4001L2609 4001L2783 4001L2783 4001L2957 4001L2957 4001L3130 4001L3130 4001L3304 4001L3304 4001L3478 4001L3478 4001L3652 4001L3652 4001L3826 4001L3826 4001L4000 4001L4000 4001L4000 3839L4000 3439L3826 3439L3826 3159L3652 3159L3652 3719L3478 3719L3478 3759L3304 3759L3304 2879L3130 2879L3130 3879L2957 3879L2957 3759L2783 3759L2783 2999L2609 2999L2609 3759L2435 3759L2435 3879L2261 3879L2261 3359L2087 3359L2087 3799L1913 3799L1913 3919L1739 3919L1739 3039L1565 3039L1565 3799L1391 3799L1391 3759L1217 3759L1217 2799L1043 2799L1043 3319L870 3319L870 3039L696 3039L696 3559L522 3559L522 3799L348 3799L348 3399L174 3399L174 3759L0 3759Z" fill="#fd87aa"></path></svg>