<svg id="visual" viewBox="0 0 900 600" width="900" height="600" xmlns="http://www.w3.org/2000/svg" xmlns:xlink="http://www.w3.org/1999/xlink" version="1.1"><rect x="0" y="0" width="900" height="600" fill="#002233"></rect><path d="M0 451L7.2 450.7C14.3 450.3 28.7 449.7 43 451.8C57.3 454 71.7 459 86 458.7C100.3 458.3 114.7 452.7 128.8 450.2C143 447.7 157 448.3 171.2 452.3C185.3 456.3 199.7 463.7 214 463C228.3 462.3 242.7 453.7 257 447.7C271.3 441.7 285.7 438.3 300 443.3C314.3 448.3 328.7 461.7 343 465.5C357.3 469.3 371.7 463.7 386 458.2C400.3 452.7 414.7 447.3 428.8 441.8C443 436.3 457 430.7 471.2 429.7C485.3 428.7 499.7 432.3 514 439.2C528.3 446 542.7 456 557 454C571.3 452 585.7 438 600 438.3C614.3 438.7 628.7 453.3 643 454.7C657.3 456 671.7 444 686 440.3C700.3 436.7 714.7 441.3 728.8 441.2C743 441 757 436 771.2 437.5C785.3 439 799.7 447 814 447.7C828.3 448.3 842.7 441.7 857 440.5C871.3 439.3 885.7 443.7 892.8 445.8L900 448L900 601L892.8 601C885.7 601 871.3 601 857 601C842.7 601 828.3 601 814 601C799.7 601 785.3 601 771.2 601C757 601 743 601 728.8 601C714.7 601 700.3 601 686 601C671.7 601 657.3 601 643 601C628.7 601 614.3 601 600 601C585.7 601 571.3 601 557 601C542.7 601 528.3 601 514 601C499.7 601 485.3 601 471.2 601C457 601 443 601 428.8 601C414.7 601 400.3 601 386 601C371.7 601 357.3 601 343 601C328.7 601 314.3 601 300 601C285.7 601 271.3 601 257 601C242.7 601 228.3 601 214 601C199.7 601 185.3 601 171.2 601C157 601 143 601 128.8 601C114.7 601 100.3 601 86 601C71.7 601 57.3 601 43 601C28.7 601 14.3 601 7.2 601L0 601Z" fill="#0066FF" stroke-linecap="round" stroke-linejoin="miter"></path></svg>